<svg width="343" height="339" viewBox="0 0 343 339" fill="none" xmlns="http://www.w3.org/2000/svg">
<path d="M50.2734 153.347C58.6519 161.341 66.9882 169.379 75.2822 177.461C76.7554 178.874 83.0312 184.238 83.6504 185.426C84.8921 187.808 85.8747 193.993 86.9824 197.258C90.4887 207.838 95.923 217.678 103.01 226.28C104.795 228.431 107.119 230.716 109.025 232.826C114.673 237.873 118.852 241.387 125.415 245.396C136.508 251.25 146.506 255.56 159.17 256.952C160.681 257.117 164.635 257.463 165.834 257.905C165.697 258.613 165.255 259.277 164.701 259.907C157.496 268.115 149.771 275.877 142.192 283.737C142.168 283.752 142.143 283.767 142.118 283.782C140.349 285.779 137.905 288.046 136.187 290.114C135.882 290.48 135.6 290.839 135.349 291.19C136.323 292.315 137.333 293.446 138.368 294.581C138.713 294.959 139.061 295.338 139.411 295.717C139.927 296.275 140.449 296.833 140.974 297.391C143.298 299.861 145.695 302.326 148.055 304.732C149.501 306.208 150.932 307.661 152.323 309.082L171.354 328.465C165.157 327.925 159.06 327.925 152.588 327.28C138.504 325.775 124.676 322.48 111.433 317.484C110.809 317.249 110.186 317.011 109.564 316.769L108.23 316.24C88.3535 307.558 72.1335 297.585 56.7695 281.987C54.5115 279.695 50.403 275.777 48.6465 273.197C46.111 270.812 41.7661 264.682 39.6611 261.77C23.8117 239.838 16.4651 217.584 11.8789 191.297L50.2734 153.347Z" fill="#A6382A"/>
<path d="M170.248 10.1553C172.892 10.5019 176.981 10.4646 179.778 10.5742C184.251 10.7562 188.713 11.1295 193.153 11.6924C216.506 14.5132 238.921 22.5721 258.725 35.2676C262.382 37.6258 267.2 40.8616 270.423 43.6631C281.855 51.8753 293.455 64.6051 301.782 76C302.29 76.6945 305.333 81.0539 305.58 81.7334C317.528 98.8231 327.4 126.223 329.763 147.007C325.425 151.391 321.076 155.764 316.716 160.126C312.356 164.488 307.985 168.838 303.603 173.177C303.107 173.668 302.602 174.165 302.092 174.666C298.52 178.172 294.658 181.875 291.317 185.393C286.433 180.419 281.06 175.54 275.783 170.645C273.673 168.686 271.578 166.725 269.535 164.754C268.514 163.768 267.505 162.781 266.515 161.789C264.481 159.754 261.355 157.028 259.105 154.744C258.76 154.393 258.434 154.053 258.137 153.727C257.988 153.563 257.847 153.403 257.713 153.248C257.091 150.02 256.389 146.997 255.566 144.097C255.383 143.452 255.194 142.813 254.999 142.18C253.924 138.695 252.653 135.365 251.105 132.035C250.824 131.43 250.534 130.824 250.233 130.218C249.033 127.793 247.678 125.354 246.141 122.842C244.603 120.33 242.506 117.678 240.966 115.348C240.746 115.015 240.538 114.688 240.344 114.37L240.017 114.067C238.295 112.399 235.346 108.488 233.562 106.694C228.345 101.45 223.513 97.9056 217.521 93.7744C214.728 92.167 211.903 90.6153 209.049 89.1201C202.426 86.4302 197.822 84.7317 193.065 83.5498C192.471 83.402 191.873 83.2625 191.27 83.1299C190.666 82.9974 190.056 82.872 189.436 82.7529C188.814 82.6337 188.182 82.5208 187.535 82.4131C187.212 82.3593 186.884 82.3062 186.553 82.2549C185.89 82.1523 185.209 82.0548 184.508 81.9609C183.104 81.7732 181.614 81.6014 180.005 81.4375C178.798 81.3146 177.524 81.1959 176.168 81.0791C176.565 80.7179 176.963 80.3444 177.362 79.96C177.762 79.5754 178.163 79.1801 178.564 78.7754C183.386 73.9191 188.366 67.7232 193.252 62.8701C193.659 62.4657 194.066 62.0708 194.472 61.6865C194.877 61.3024 195.283 60.9292 195.687 60.5684C198.439 56.9839 203.858 52.2324 207.114 48.1787C203.331 43.422 197.981 38.2728 193.631 33.8408L170.248 10.1553Z" fill="#D13B3A"/>
<path d="M332.013 169.041C331.328 179.476 331.28 186.27 329.452 196.946C323.317 232.72 305.02 265.28 277.652 289.122C275.645 290.885 271.408 294.435 269.125 295.968L269.01 296.084C267.661 297.385 261.41 301.569 259.805 302.617C239.94 315.512 217.465 323.842 193.995 327.005C192.668 325.935 190.509 323.68 189.185 322.375C185.836 319.085 182.519 315.76 179.233 312.405C172.281 305.38 164.526 297.963 157.867 290.745C160.15 287.978 162.834 285.25 165.282 282.6L180.516 266.245C181.752 264.915 188.606 256.92 189.551 256.54C195.813 254.03 204.638 252.17 210.887 248.586C213.611 247.024 216.994 244.835 219.487 243.629L220.863 242.575C224.04 240.167 226.992 238.056 230.068 235.246C245.83 221.092 255.997 201.758 258.725 180.75C258.877 179.479 259.018 178.206 259.143 176.933L279.973 197.388C283.935 201.277 287.697 205.135 291.902 208.782C297.242 203.955 302.478 198.477 307.565 193.349L321.205 179.824C324.523 176.486 328.58 172.123 332.013 169.041Z" fill="#7A1615"/>
<path d="M148.002 11.9121C152.47 16.3744 183.041 46.62 183.818 48.8643C182.741 51.4282 169.824 64.4447 167.181 67.2705L158.124 76.8613C152.091 83.2523 153.285 82.6925 144.536 84.9268C133.78 88.092 123.78 93.414 115.146 100.568C96.6621 116.122 84.9827 138.278 82.5967 162.317C78.7282 159.047 74.6988 154.765 71.0791 151.203C63.9961 144.233 57.1426 137.038 49.8408 130.288C36.6999 143.323 23.4912 156.29 10.2148 169.187C10.4928 144.135 16.51 119.481 27.8037 97.1182C42.2152 68.7245 64.8257 45.3162 92.7031 29.9297C97.2176 27.4409 104.363 23.7293 109.168 22.1445C115.769 18.1903 140.537 12.3637 148.002 11.9121Z" fill="#A62120"/>
<circle cx="170.248" cy="169.187" r="76.1385" fill="#1A1A1A"/>
<path d="M151.33 136.888C151.33 132.932 155.707 130.543 159.034 132.682L209.764 165.294C212.826 167.262 212.826 171.738 209.764 173.706L159.034 206.318C155.707 208.457 151.33 206.068 151.33 202.112V136.888Z" fill="#CFCFCF"/>
</svg>
